<svg width="16" height="4" viewBox="0 0 16 4" fill="none" xmlns="http://www.w3.org/2000/svg">
<path d="M1.75 3.25C2.44036 3.25 3.00001 2.69036 3.00001 2C3.00001 1.30965 2.44036 0.75 1.75 0.75C1.05965 0.75 0.5 1.30965 0.5 2C0.5 2.69036 1.05965 3.25 1.75 3.25Z" fill="#222222"/>
<path d="M14.25 3.25C14.9404 3.25 15.5 2.69036 15.5 2C15.5 1.30965 14.9404 0.75 14.25 0.75C13.5597 0.75 13 1.30965 13 2C13 2.69036 13.5597 3.25 14.25 3.25Z" fill="#222222"/>
<path d="M9.25001 2C9.25001 2.69036 8.69036 3.25 8.00001 3.25C7.30965 3.25 6.75 2.69036 6.75 2C6.75 1.30965 7.30965 0.75 8.00001 0.75C8.69036 0.75 9.25001 1.30965 9.25001 2Z" fill="#222222"/>
</svg>
